<svg width="595" height="535" viewBox="0 0 595 535" fill="none" xmlns="http://www.w3.org/2000/svg">
<path d="M487.19 141.147H44.4434V393.9H487.19V141.147Z" stroke="#5F6368" stroke-width="0.526222" stroke-miterlimit="10"/>
<path d="M44.4434 204.34H487.19" stroke="#5F6368" stroke-width="0.526222" stroke-miterlimit="10"/>
<path d="M44.4434 267.523H487.19" stroke="#5F6368" stroke-width="0.526222" stroke-miterlimit="10"/>
<path d="M44.4434 330.708H487.19" stroke="#5F6368" stroke-width="0.526222" stroke-miterlimit="10"/>
<path d="M423.941 393.9V141.147" stroke="#5F6368" stroke-width="0.526222" stroke-miterlimit="10"/>
<path d="M360.693 393.9V141.147" stroke="#5F6368" stroke-width="0.526222" stroke-miterlimit="10"/>
<path d="M297.436 393.9V141.147" stroke="#5F6368" stroke-width="0.526222" stroke-miterlimit="10"/>
<path d="M234.188 393.9V141.147" stroke="#5F6368" stroke-width="0.526222" stroke-miterlimit="10"/>
<path d="M170.938 393.9V141.147" stroke="#5F6368" stroke-width="0.526222" stroke-miterlimit="10"/>
<path d="M107.691 393.9V141.147" stroke="#5F6368" stroke-width="0.526222" stroke-miterlimit="10"/>
<path d="M485.039 269.933H489.525V265.446H485.039V269.933Z" fill="#F1F3F4"/>
<path d="M421.947 269.933H426.434V265.446H421.947V269.933Z" fill="#F1F3F4"/>
<path d="M485.039 143.483H489.525V138.996H485.039V143.483Z" fill="#5F6368"/>
<path d="M421.947 143.483H426.434V138.996H421.947V143.483Z" fill="#5F6368"/>
<path d="M360.426 268.871V205.669H455.118H549.819V268.871V332.073H455.118H360.426V268.871Z" fill="#1F2023"/>
<path d="M365 204.5L452.297 204.5H498.648L545 204.5" stroke="#5F6368" stroke-width="2.13258" stroke-miterlimit="10" stroke-linecap="round" stroke-dasharray="0.1 5"/>
<path d="M549.82 204.5V268.871V332" stroke="#5F6368" stroke-width="2.13258" stroke-miterlimit="10" stroke-linecap="round" stroke-dasharray="0.1 5"/>
<path d="M545 332H458.188H366" stroke="#5F6368" stroke-width="2.13258" stroke-miterlimit="10" stroke-linecap="round" stroke-dasharray="0.1 5"/>
<path d="M360.472 332.073H360.426V332.018" stroke="#5F6368" stroke-width="2.13258" stroke-miterlimit="10" stroke-linecap="round"/>
<path d="M360.426 321.595V268.871V204.5" stroke="#5F6368" stroke-width="2.13258" stroke-miterlimit="10" stroke-linecap="round" stroke-dasharray="0.1 5"/>
<g opacity="0.4">
<path d="M297.866 125.758V267.626H172.357V78.0103H250.46L297.866 125.758Z" fill="#9AA0A6"/>
</g>
<path opacity="0.4" d="M249.541 78.0098V125.416H296.947" fill="#9AA0A6"/>
<path opacity="0.4" d="M170.986 267.625H297.39L170.986 141.212V267.625Z" fill="#9AA0A6"/>
<path d="M487.381 394.269H423.93" stroke="#F8F9FA" stroke-width="0.923196" stroke-linecap="round" stroke-linejoin="round"/>
<path d="M550.557 394.269H487.115" stroke="#F8F9FA" stroke-width="0.923196" stroke-linecap="round" stroke-linejoin="round"/>
<path d="M44.4688 141.978V78.0098" stroke="#F8F9FA" stroke-width="0.923196" stroke-linecap="round" stroke-linejoin="round"/>
<path d="M44.4434 204.173V140.214" stroke="#F8F9FA" stroke-width="0.923196" stroke-linecap="round" stroke-linejoin="round"/>
<path d="M233.282 125.518V267.385H107.773V77.77H185.876L233.282 125.518Z" fill="#F1F3F4"/>
<path opacity="0.4" d="M185.877 77.77V125.176H233.283" fill="#9AA0A6"/>
<path opacity="0.4" d="M107.33 267.385H233.734L107.33 140.972V267.385Z" fill="#9AA0A6"/>
<path d="M296.946 456.742H233.744V393.521V330.292H296.946H360.148V393.521V456.742H296.946Z" fill="#1F2023"/>
<path d="M233.744 452V393.521V334.806" stroke="#5F6368" stroke-width="1.74484" stroke-miterlimit="10" stroke-linecap="round" stroke-dasharray="0.1 5"/>
<path d="M233.727 330.292H296.947H355.635" stroke="#5F6368" stroke-width="1.74484" stroke-miterlimit="10" stroke-linecap="round" stroke-dasharray="0.1 5"/>
<path d="M360.102 330.292H360.147V330.337" stroke="#5F6368" stroke-width="1.74484" stroke-miterlimit="10" stroke-linecap="round"/>
<path d="M360.148 339.283V393.521V452.227" stroke="#5F6368" stroke-width="1.74484" stroke-miterlimit="10" stroke-linecap="round" stroke-dasharray="0.1 5"/>
<path d="M360 456.742H296.947H234" stroke="#5F6368" stroke-width="1.74484" stroke-miterlimit="10" stroke-linecap="round" stroke-dasharray="0.1 5"/>
<path d="M185.876 172.157H74.1504" stroke="#5F6368" stroke-width="2.4557" stroke-miterlimit="10"/>
<path d="M185.876 140.168H74.1504" stroke="#5F6368" stroke-width="2.4557" stroke-miterlimit="10"/>
<path d="M148.782 204.174H74.1504" stroke="#5F6368" stroke-width="2.4557" stroke-miterlimit="10"/>
<path d="M424.301 330.864C459.191 330.864 487.476 302.58 487.476 267.689C487.476 232.799 459.191 204.515 424.301 204.515C389.411 204.515 361.127 232.799 361.127 267.689C361.127 302.58 389.411 330.864 424.301 330.864Z" fill="#202124" stroke="#174EA6" stroke-width="0.923196" stroke-miterlimit="10"/>
<path d="M107.569 330.615C142.419 330.615 170.67 302.364 170.67 267.515C170.67 232.665 142.419 204.414 107.569 204.414C72.7198 204.414 44.4688 232.665 44.4688 267.515C44.4688 302.364 72.7198 330.615 107.569 330.615Z" fill="#FBBC04"/>
<path d="M170.671 266.794C170.671 301.7 142.375 329.996 107.469 329.996V266.794H170.671Z" fill="#F9AB00"/>
<path d="M107.469 299.393C125.36 299.393 139.864 284.889 139.864 266.998" stroke="#3C4043" stroke-width="1.57867" stroke-miterlimit="10"/>
<path d="M75.0742 266.998C75.0742 284.889 89.5776 299.393 107.469 299.393" stroke="#3C4043" stroke-width="1.57867" stroke-miterlimit="10"/>
<path d="M75.0749 260.027C77.252 260.027 79.0169 258.262 79.0169 256.085C79.0169 253.908 77.252 252.143 75.0749 252.143C72.8977 252.143 71.1328 253.908 71.1328 256.085C71.1328 258.262 72.8977 260.027 75.0749 260.027Z" fill="#3C4043"/>
<path d="M139.866 260.027C142.043 260.027 143.808 258.262 143.808 256.085C143.808 253.908 142.043 252.143 139.866 252.143C137.689 252.143 135.924 253.908 135.924 256.085C135.924 258.262 137.689 260.027 139.866 260.027Z" fill="#3C4043"/>
<path d="M391.944 362.068C426.834 362.068 455.118 333.784 455.118 298.894C455.118 264.004 426.834 235.72 391.944 235.72C357.054 235.72 328.77 264.004 328.77 298.894C328.77 333.784 357.054 362.068 391.944 362.068Z" fill="#202124" stroke="#4285F4" stroke-width="0.923196" stroke-miterlimit="10"/>
<path d="M361.135 330.356V267.182H297.96V330.356H361.135Z" fill="#4285F4"/>
<path d="M361.126 393.522C396.016 393.522 424.3 365.237 424.3 330.347C424.3 295.457 396.016 267.173 361.126 267.173C326.235 267.173 297.951 295.457 297.951 330.347C297.951 365.237 326.235 393.522 361.126 393.522Z" fill="#4285F4"/>
<path d="M358.21 362.16H363.324V316.425H358.21V362.16Z" fill="#F8F9FA"/>
<path d="M360.774 308.107C363.415 308.107 365.557 305.966 365.557 303.325C365.557 300.684 363.415 298.543 360.774 298.543C358.133 298.543 355.992 300.684 355.992 303.325C355.992 305.966 358.133 308.107 360.774 308.107Z" fill="#F8F9FA"/>
<path d="M485.039 206.74H489.525V202.253H485.039V206.74Z" fill="#9AA0A6"/>
<path d="M421.947 206.74H426.434V202.253H421.947V206.74Z" fill="#9AA0A6"/>
</svg>
