<svg xmlns="http://www.w3.org/2000/svg" xmlns:xlink="http://www.w3.org/1999/xlink" width="550" height="482"><defs><path id="a" d="M0 482h549.056V.063H0z"/></defs><g fill="none" fill-rule="evenodd"><g stroke="#3C4043" stroke-width=".57"><path d="M137.863 481.652h410.763V70.889H137.863zM137.863 139.35h410.763M137.863 207.81h410.763M137.863 276.27h410.763M137.863 344.731h410.763M137.863 413.192h410.763M480.165 481.652V70.89M411.705 481.652V70.89M343.244 481.652V70.89M274.784 481.652V70.89M206.323 481.652V70.89"/></g><path stroke="#5F6368" stroke-width=".57" d="M69.402 413.192h410.763V2.429H69.402zM69.402 70.889h410.763M69.402 139.35h410.763M69.402 207.81h410.763M69.402 276.27h410.763M69.402 344.731h410.763M411.705 413.192V2.429M343.244 413.192V2.429M274.784 413.192V2.429M206.323 413.192V2.429M137.863 413.192V2.429"/><path fill="#F1F3F4" d="M66.973 4.857h4.857V.001h-4.857zM66.974 73.318h4.857v-4.857h-4.857zM135.435 4.857h4.856V.001h-4.856zM135.434 73.318h4.857v-4.857h-4.857z"/><path fill="#1F2023" d="M147.88 224.925L96.535 173.58l51.346-51.347 51.344-51.344 51.346 51.346 51.345 51.345-51.344 51.344-51.347 51.346zM411.974 206.988h136.083V71.712H411.974z"/><path d="M411.474 207.488h137.083V71.212H411.474v136.276zm1-1h135.083V72.212H412.474v134.276z" fill="#5F6368"/><g transform="translate(0 -.063)"><path d="M480.016 207.176c-37.587 0-68.167-30.398-68.167-67.763 0-37.364 30.58-67.763 68.167-67.763s68.167 30.399 68.167 67.763c0 37.365-30.58 67.763-68.167 67.763" fill="#1F2023"/><path d="M480.016 71.275c-37.854 0-68.542 30.506-68.542 68.138 0 37.632 30.688 68.138 68.542 68.138s68.542-30.506 68.542-68.138c0-37.632-30.688-68.138-68.542-68.138m0 .75c37.38 0 67.792 30.23 67.792 67.388S517.396 206.8 480.016 206.8s-67.792-30.23-67.792-67.388 30.412-67.388 67.792-67.388" fill="#5F6368"/><path d="M480.016 207.176c-15.944 0-28.915-30.398-28.915-67.763 0-37.364 12.97-67.763 28.915-67.763 15.944 0 28.915 30.399 28.915 67.763 0 37.365-12.971 67.763-28.915 67.763" fill="#1F2023"/><path d="M480.016 71.275c-16.176 0-29.29 30.506-29.29 68.138 0 37.632 13.114 68.138 29.29 68.138s29.29-30.506 29.29-68.138c0-37.632-13.114-68.138-29.29-68.138m0 .75c15.737 0 28.54 30.23 28.54 67.388s-12.803 67.388-28.54 67.388c-15.737 0-28.54-30.23-28.54-67.388s12.803-67.388 28.54-67.388" fill="#5F6368"/><path d="M480.016 71.275V207.55" fill="#1F2023"/><path d="M480.016 71.275V207.55M411.972 139.412h137.083" stroke="#5F6368"/><path fill="#1F2023" d="M147.88 224.988l-51.345-51.345 51.346-51.347 51.344-51.344 51.346 51.346 51.345 51.345-51.344 51.344-51.347 51.346z"/><path stroke="#5F6368" stroke-width="2" stroke-linecap="round" d="M96.57 173.678l-.035-.035.036-.036"/><path d="M103.833 166.345l44.049-44.048L195.56 74.62" stroke="#5F6368" stroke-width="2" stroke-linecap="round" stroke-dasharray="0.103,10.271"/><path stroke="#5F6368" stroke-width="2" stroke-linecap="round" d="M199.19 70.988l.036-.036.035.036"/><path d="M206.524 78.25l44.047 44.048 47.679 47.679" stroke="#5F6368" stroke-width="2" stroke-linecap="round" stroke-dasharray="0.103,10.271"/><path stroke="#5F6368" stroke-width="2" stroke-linecap="round" d="M301.881 173.607l.035.036-.035.035"/><path d="M294.618 180.94l-44.046 44.047-47.68 47.68" stroke="#5F6368" stroke-width="2" stroke-linecap="round" stroke-dasharray="0.103,10.271"/><path stroke="#5F6368" stroke-width="2" stroke-linecap="round" d="M199.261 276.298l-.035.036-.036-.036"/><path d="M191.928 269.036l-44.047-44.048-47.679-47.678" stroke="#5F6368" stroke-width="2" stroke-linecap="round" stroke-dasharray="0.103,10.271"/><path d="M205.583 173.639c0-19.309 15.66-34.97 34.977-34.97 19.317 0 34.97 15.661 34.97 34.97 0 19.317-15.653 34.978-34.97 34.978-19.316 0-34.977-15.661-34.977-34.978" fill="#EA4335"/><path d="M223.072 191.127c9.657 9.657 25.315 9.657 34.972 0 9.658-9.658 9.658-25.315 0-34.973-9.657-9.657-25.315-9.657-34.972 0-9.657 9.658-9.657 25.315 0 34.973" fill="#F1F3F4"/><path d="M411.705 276.334h-68.46v68.46c0 37.81 30.65 68.46 68.46 68.46 37.81 0 68.46-30.65 68.46-68.46 0-37.81-30.65-68.46-68.46-68.46" fill="#FBBC04"/><mask id="b" fill="#fff"><use xlink:href="#a"/></mask><path fill="#191919" mask="url(#b)" d="M409.932 357.794h3.545v-48.551h-3.545zM414.756 370.392a3.051 3.051 0 1 0-6.102 0 3.051 3.051 0 0 0 6.102 0"/><path stroke="#FBBC04" mask="url(#b)" d="M343.244 70.952v205.382H137.862"/><path stroke="#EA8600" mask="url(#b)" d="M137.863 276.334V70.95h205.382"/><path stroke="#EA4335" stroke-width="2" mask="url(#b)" d="M291.899 122.298l-51.345-51.346-51.345 51.345"/><path stroke="#F1F3F4" stroke-width="2" mask="url(#b)" d="M189.208 224.988l-51.345-51.345 51.346-51.347"/><path stroke="#EA4335" stroke-width="2" mask="url(#b)" d="M291.9 224.987l-51.346 51.346-51.346-51.345"/><path stroke="#C5221F" stroke-width="2" mask="url(#b)" d="M291.899 122.298l51.345 51.345-51.344 51.344"/></g><path d="M514.544 68.206c.14 18.803-15.888 34.186-34.885 34.186-18.597 0-33.674-14.923-33.674-33.332v-.6c0-9.367 3.842-17.846 10.038-23.995a34.407 34.407 0 0 1 24.242-9.935 34.38 34.38 0 0 1 24.243 9.935c6.147 6.094 9.967 14.474 10.036 23.74" fill="#1F2023"/><path d="M514.544 68.206c.14 18.803-15.888 34.186-34.885 34.186-18.597 0-33.674-14.923-33.674-33.332v-.6c0-9.367 3.842-17.846 10.038-23.995a34.407 34.407 0 0 1 24.242-9.935 34.38 34.38 0 0 1 24.243 9.935c6.147 6.094 9.967 14.474 10.036 23.74z" stroke="#5F6368" stroke-width="1.5"/><path stroke="#F8F9FA" stroke-linecap="round" stroke-linejoin="round" d="M.5 413.107l68.391-34.196L.5 344.716M68.63 413.107h68.788"/><path d="M480.264 68.206c.14 18.803-15.888 34.186-34.885 34.186-18.597 0-33.674-14.923-33.674-33.332v-.6c0-9.367 3.842-17.846 10.038-23.995a34.407 34.407 0 0 1 24.242-9.935 34.38 34.38 0 0 1 24.243 9.935c6.147 6.094 9.967 14.474 10.036 23.74" fill="#1F2023"/><path d="M480.264 68.206c.14 18.803-15.888 34.186-34.885 34.186-18.597 0-33.674-14.923-33.674-33.332v-.6c0-9.367 3.842-17.846 10.038-23.995a34.407 34.407 0 0 1 24.242-9.935 34.38 34.38 0 0 1 24.243 9.935c6.147 6.094 9.967 14.474 10.036 23.74z" stroke="#F1F3F4"/><path d="M453.069 54.782c5.686 5.603 5.493 15.032-.21 20.735-5.583 5.583-14.59 5.629-20.115.103l-.18-.18c-2.812-2.812-4.204-6.511-4.19-10.217a14.608 14.608 0 0 1 4.295-10.26 14.597 14.597 0 0 1 10.26-4.296c3.675-.015 7.338 1.354 10.14 4.115zM452.859 75.517l10.737 10.737" stroke="#F1F3F4"/></g></svg>
